<svg width="1024" height="1024" xmlns="http://www.w3.org/2000/svg">

 <g>
  <title>background</title>
  <rect fill="none" id="canvas_background" height="1026" width="1026" y="-1" x="-1"/>
 </g>
 <g>
  <title>Layer 1</title>
  <rect rx="50" stroke="null" id="svg_3" height="1024" width="1024" y="0" x="0" fill-opacity="null" stroke-opacity="null" stroke-width="null" fill="#7e57c2"/>
  <path stroke="null" fill="#ffffff" id="svg_1" d="m790.333363,722.489613s0,-266.156289 0,-349.656301s-83.500013,-167.000025 -167.000025,-167.000025c-55.666675,0 -55.666675,0 -55.666675,0l0,-111.33335l-167.000025,167.000025l167.000025,167.000025l0,-111.33335s27.833337,0 55.666675,0s55.666675,27.833337 55.666675,55.666675s0,349.656301 0,349.656301c-33.052088,19.13542 -55.666675,54.796883 -55.666675,95.677098c0,61.755217 49.578132,111.333349 111.33335,111.333349s111.333349,-49.578132 111.333349,-111.333349c0,-40.880215 -22.614586,-76.541678 -55.666674,-95.677098zm-55.666675,151.343773c-30.442713,0 -55.666675,-25.223962 -55.666675,-55.666675s25.223962,-55.666675 55.666675,-55.666675s55.666675,25.223962 55.666675,55.666675s-25.223963,55.666675 -55.666675,55.666675zm-445.333399,-723.666774c-61.755218,0 -111.33335,49.578133 -111.33335,111.33335c0,40.880214 22.614587,76.541678 55.666675,95.677097l0,364.442762c-33.052088,19.13542 -55.666675,54.796884 -55.666675,95.677098c0,61.755217 49.578132,111.33335 111.33335,111.33335s111.333349,-49.578133 111.333349,-111.33335c0,-40.880214 -22.614586,-76.541678 -55.666674,-95.677098l0,-364.442762c33.052088,-19.135419 55.666674,-54.796883 55.666674,-95.677097c0,-61.755217 -49.578132,-111.33335 -111.333349,-111.33335zm0,723.666774c-30.442713,0 -55.666675,-25.223962 -55.666675,-55.666675s25.223962,-55.666675 55.666675,-55.666675s55.666675,25.223962 55.666675,55.666675s-25.223962,55.666675 -55.666675,55.666675zm0,-556.666749c-30.442713,0 -55.666675,-25.223962 -55.666675,-55.666675s25.223962,-55.666675 55.666675,-55.666675s55.666675,25.223962 55.666675,55.666675s-25.223962,55.666675 -55.666675,55.666675z"/>
 </g>
</svg>